<svg width="32" height="32" viewBox="0 0 32 32" fill="none" xmlns="http://www.w3.org/2000/svg">
<path d="M7.57843 4.58905L16 13.0103L24.3779 4.63268C24.563 4.43572 24.7859 4.27815 25.0334 4.16943C25.2808 4.06072 25.5476 4.00309 25.8179 4C26.3965 4 26.9515 4.22985 27.3606 4.63899C27.7698 5.04813 27.9996 5.60305 27.9996 6.18166C28.0047 6.44914 27.9551 6.71483 27.8538 6.96244C27.7525 7.21004 27.6017 7.43434 27.4106 7.62156L18.9235 15.9991L27.4106 24.4858C27.7702 24.8376 27.981 25.3139 27.9996 25.8166C27.9996 26.3952 27.7698 26.9501 27.3606 27.3593C26.9515 27.7684 26.3965 27.9983 25.8179 27.9983C25.5398 28.0098 25.2624 27.9634 25.0033 27.862C24.7441 27.7606 24.5089 27.6064 24.3125 27.4092L16 18.988L7.60025 27.3874C7.4159 27.5778 7.19567 27.7298 6.95227 27.8347C6.70887 27.9395 6.44711 27.9951 6.18211 27.9983C5.60347 27.9983 5.04853 27.7684 4.63938 27.3593C4.23022 26.9501 4.00035 26.3952 4.00035 25.8166C3.99527 25.5491 4.0449 25.2834 4.14619 25.0358C4.24749 24.7882 4.39832 24.5639 4.58943 24.3767L13.0764 15.9991L4.58943 7.51247C4.22984 7.1607 4.01899 6.68434 4.00035 6.18166C4.00035 5.60305 4.23022 5.04813 4.63938 4.63899C5.04853 4.22985 5.60347 4 6.18211 4C6.70573 4.00654 7.20753 4.21817 7.57843 4.58905Z" fill="#252525"/>
</svg>
