<svg width="48" height="48" viewBox="0 0 48 48" fill="none" xmlns="http://www.w3.org/2000/svg">
<g clip-path="url(#clip0_39_340)">
<path d="M48 8.00623V10.8328C47.9997 11.1023 47.8925 11.3607 47.7019 11.5513C47.5113 11.7419 47.2529 11.8491 46.9834 11.8494H1.01662C0.747042 11.8491 0.48859 11.7419 0.297992 11.5512C0.107394 11.3606 0.000223329 11.1021 0 10.8325L0 8.00623C0.000223329 7.73664 0.107394 7.47816 0.297992 7.28751C0.48859 7.09686 0.747042 6.98962 1.01662 6.98932H46.9834C47.253 6.98962 47.5114 7.09686 47.702 7.28751C47.8926 7.47816 47.9998 7.73664 48 8.00623ZM46.9834 36.1508H1.01662C0.747091 36.1511 0.488681 36.2583 0.298091 36.4489C0.107502 36.6395 0.000297773 36.8979 0 37.1674L0 39.9937C0.000297773 40.2633 0.107502 40.5217 0.298091 40.7123C0.488681 40.9028 0.747091 41.0101 1.01662 41.0103H46.9834C47.2529 41.01 47.5113 40.9028 47.7019 40.7122C47.8925 40.5216 47.9997 40.2633 48 39.9937V37.1672C47.9996 36.8977 47.8924 36.6394 47.7018 36.4488C47.5112 36.2583 47.2529 36.1511 46.9834 36.1508ZM46.9834 21.5701H1.01662C0.747091 21.5704 0.488681 21.6776 0.298091 21.8682C0.107502 22.0588 0.000297773 22.3172 0 22.5867L0 25.4133C0.000297773 25.6828 0.107502 25.9412 0.298091 26.1318C0.488681 26.3224 0.747091 26.4296 1.01662 26.4299H46.9834C47.2529 26.4296 47.5113 26.3224 47.7019 26.1318C47.8925 25.9412 47.9997 25.6828 48 25.4133V22.5867C47.9997 22.3172 47.8925 22.0588 47.7019 21.8682C47.5113 21.6776 47.2529 21.5704 46.9834 21.5701Z" fill="white"/>
</g>
<defs>
<clipPath id="clip0_39_340">
<rect width="48" height="48" fill="white"/>
</clipPath>
</defs>
</svg>
