<svg viewBox="0 0 32 32" fill="currentColor" xmlns="http://www.w3.org/2000/svg">
<g clip-path="url(#clip0_39_10)">
<path d="M32 5.33748V7.22186C31.9998 7.40154 31.9283 7.57381 31.8013 7.70086C31.6742 7.82792 31.5019 7.89939 31.3223 7.89961H0.67775C0.498028 7.89941 0.325727 7.82791 0.198661 7.70081C0.0715963 7.57371 0.000148886 7.40139 0 7.22167L0 5.33748C0.000148886 5.15776 0.0715963 4.98544 0.198661 4.85834C0.325727 4.73124 0.498028 4.65974 0.67775 4.65955H31.3223C31.502 4.65974 31.6743 4.73124 31.8013 4.85834C31.9284 4.98544 31.9999 5.15776 32 5.33748ZM31.3223 24.1005H0.67775C0.49806 24.1007 0.325787 24.1722 0.198728 24.2993C0.0716679 24.4263 0.000198516 24.5986 0 24.7783L0 26.6625C0.000198516 26.8422 0.0716679 27.0144 0.198728 27.1415C0.325787 27.2686 0.49806 27.34 0.67775 27.3402H31.3223C31.5019 27.34 31.6742 27.2685 31.8013 27.1415C31.9283 27.0144 31.9998 26.8422 32 26.6625V24.7781C31.9997 24.5985 31.9282 24.4262 31.8012 24.2992C31.6741 24.1722 31.5019 24.1008 31.3223 24.1005ZM31.3223 14.38H0.67775C0.49806 14.3802 0.325787 14.4517 0.198728 14.5788C0.0716679 14.7058 0.000198516 14.8781 0 15.0578L0 16.9422C0.000198516 17.1219 0.0716679 17.2941 0.198728 17.4212C0.325787 17.5483 0.49806 17.6197 0.67775 17.6199H31.3223C31.5019 17.6197 31.6742 17.5483 31.8013 17.4212C31.9283 17.2941 31.9998 17.1219 32 16.9422V15.0578C31.9998 14.8781 31.9283 14.7058 31.8013 14.5788C31.6742 14.4517 31.5019 14.3803 31.3223 14.38Z" fill="currentColor"/>
</g>
<defs>
<clipPath id="clip0_39_10">
<rect width="32" height="32" fill="currentColor"/>
</clipPath>
</defs>
</svg>
