<svg viewBox="0 0 232 66" fill="none" xmlns="http://www.w3.org/2000/svg">
<path d="M104.532 29L109.348 6.32H112.4L117.244 29H114.248L113.212 23.288H108.592L107.5 29H104.532ZM109.012 21.02H112.792L110.888 10.8L109.012 21.02ZM125.229 29.252C123.624 29.252 122.373 28.916 121.477 28.244C120.6 27.572 119.984 26.6667 119.629 25.528C119.293 24.3893 119.125 23.12 119.125 21.72V13.712C119.125 12.1813 119.293 10.8467 119.629 9.708C119.984 8.56933 120.6 7.692 121.477 7.076C122.373 6.44133 123.624 6.124 125.229 6.124C126.648 6.124 127.768 6.38533 128.589 6.908C129.429 7.43067 130.027 8.17733 130.381 9.148C130.755 10.1187 130.941 11.2853 130.941 12.648V14.44H127.945V12.844C127.945 12.004 127.899 11.2667 127.805 10.632C127.731 9.97867 127.507 9.47467 127.133 9.12C126.76 8.76533 126.135 8.588 125.257 8.588C124.361 8.588 123.708 8.784 123.297 9.176C122.887 9.54933 122.616 10.0907 122.485 10.8C122.373 11.4907 122.317 12.3027 122.317 13.236V22.224C122.317 23.3627 122.411 24.268 122.597 24.94C122.784 25.5933 123.092 26.06 123.521 26.34C123.951 26.62 124.529 26.76 125.257 26.76C126.116 26.76 126.732 26.5733 127.105 26.2C127.479 25.808 127.712 25.276 127.805 24.604C127.899 23.932 127.945 23.148 127.945 22.252V20.572H130.941V22.252C130.941 23.6333 130.773 24.856 130.437 25.92C130.101 26.9653 129.523 27.7867 128.701 28.384C127.88 28.9627 126.723 29.252 125.229 29.252ZM133.955 29V6.32H137.119V16.4H138.295L142.355 6.32H145.519L141.039 17.1L146.079 29H142.915L138.323 17.94H137.119V29H133.955ZM153.97 29.252C152.439 29.252 151.217 28.9533 150.302 28.356C149.387 27.7587 148.734 26.9093 148.342 25.808C147.95 24.688 147.754 23.3813 147.754 21.888V13.292C147.754 11.7987 147.95 10.52 148.342 9.456C148.753 8.37333 149.406 7.552 150.302 6.992C151.217 6.41333 152.439 6.124 153.97 6.124C155.501 6.124 156.714 6.41333 157.61 6.992C158.506 7.57067 159.15 8.392 159.542 9.456C159.953 10.52 160.158 11.7987 160.158 13.292V21.916C160.158 23.3907 159.953 24.6787 159.542 25.78C159.15 26.8813 158.506 27.74 157.61 28.356C156.714 28.9533 155.501 29.252 153.97 29.252ZM153.97 26.76C154.81 26.76 155.445 26.592 155.874 26.256C156.303 25.9013 156.593 25.416 156.742 24.8C156.891 24.1653 156.966 23.428 156.966 22.588V12.648C156.966 11.808 156.891 11.0893 156.742 10.492C156.593 9.876 156.303 9.40933 155.874 9.092C155.445 8.756 154.81 8.588 153.97 8.588C153.13 8.588 152.486 8.756 152.038 9.092C151.609 9.40933 151.319 9.876 151.17 10.492C151.021 11.0893 150.946 11.808 150.946 12.648V22.588C150.946 23.428 151.021 24.1653 151.17 24.8C151.319 25.416 151.609 25.9013 152.038 26.256C152.486 26.592 153.13 26.76 153.97 26.76ZM161.56 29V26.648C161.971 26.6667 162.344 26.6387 162.68 26.564C163.035 26.4893 163.343 26.312 163.604 26.032C163.884 25.752 164.127 25.3133 164.332 24.716C164.537 24.1187 164.715 23.3067 164.864 22.28C165.013 21.2533 165.144 19.956 165.256 18.388L166.012 6.32H175.98V29H172.816V8.672H168.728L168.196 18.388C168.103 19.844 167.981 21.16 167.832 22.336C167.683 23.4933 167.459 24.5107 167.16 25.388C166.88 26.2467 166.497 26.9653 166.012 27.544C165.545 28.104 164.948 28.5053 164.22 28.748C163.492 28.9907 162.605 29.0747 161.56 29ZM185.333 29.252C183.803 29.252 182.58 28.9533 181.665 28.356C180.751 27.7587 180.097 26.9093 179.705 25.808C179.313 24.688 179.117 23.3813 179.117 21.888V13.292C179.117 11.7987 179.313 10.52 179.705 9.456C180.116 8.37333 180.769 7.552 181.665 6.992C182.58 6.41333 183.803 6.124 185.333 6.124C186.864 6.124 188.077 6.41333 188.973 6.992C189.869 7.57067 190.513 8.392 190.905 9.456C191.316 10.52 191.521 11.7987 191.521 13.292V21.916C191.521 23.3907 191.316 24.6787 190.905 25.78C190.513 26.8813 189.869 27.74 188.973 28.356C188.077 28.9533 186.864 29.252 185.333 29.252ZM185.333 26.76C186.173 26.76 186.808 26.592 187.237 26.256C187.667 25.9013 187.956 25.416 188.105 24.8C188.255 24.1653 188.329 23.428 188.329 22.588V12.648C188.329 11.808 188.255 11.0893 188.105 10.492C187.956 9.876 187.667 9.40933 187.237 9.092C186.808 8.756 186.173 8.588 185.333 8.588C184.493 8.588 183.849 8.756 183.401 9.092C182.972 9.40933 182.683 9.876 182.533 10.492C182.384 11.0893 182.309 11.808 182.309 12.648V22.588C182.309 23.428 182.384 24.1653 182.533 24.8C182.683 25.416 182.972 25.9013 183.401 26.256C183.849 26.592 184.493 26.76 185.333 26.76ZM194.631 29V6.32H197.795V16.4H198.971L203.031 6.32H206.195L201.715 17.1L206.755 29H203.591L198.999 17.94H197.795V29H194.631ZM104.532 61L109.348 38.32H112.4L117.244 61H114.248L113.212 55.288H108.592L107.5 61H104.532ZM109.012 53.02H112.792L110.888 42.8L109.012 53.02ZM119.545 61V38.32H122.709V48.12H128.533V38.32H131.697V61H128.533V50.388H122.709V61H119.545ZM134.009 61L138.825 38.32H141.877L146.721 61H143.725L142.689 55.288H138.069L136.977 61H134.009ZM138.489 53.02H142.269L140.365 42.8L138.489 53.02ZM154.706 61.252C153.1 61.252 151.85 60.916 150.954 60.244C150.076 59.572 149.46 58.6667 149.106 57.528C148.77 56.3893 148.602 55.12 148.602 53.72V45.712C148.602 44.1813 148.77 42.8467 149.106 41.708C149.46 40.5693 150.076 39.692 150.954 39.076C151.85 38.4413 153.1 38.124 154.706 38.124C156.124 38.124 157.244 38.3853 158.066 38.908C158.906 39.4307 159.503 40.1773 159.858 41.148C160.231 42.1187 160.418 43.2853 160.418 44.648V46.44H157.422V44.844C157.422 44.004 157.375 43.2667 157.282 42.632C157.207 41.9787 156.983 41.4747 156.61 41.12C156.236 40.7653 155.611 40.588 154.734 40.588C153.838 40.588 153.184 40.784 152.774 41.176C152.363 41.5493 152.092 42.0907 151.962 42.8C151.85 43.4907 151.794 44.3027 151.794 45.236V54.224C151.794 55.3627 151.887 56.268 152.074 56.94C152.26 57.5933 152.568 58.06 152.998 58.34C153.427 58.62 154.006 58.76 154.734 58.76C155.592 58.76 156.208 58.5733 156.582 58.2C156.955 57.808 157.188 57.276 157.282 56.604C157.375 55.932 157.422 55.148 157.422 54.252V52.572H160.418V54.252C160.418 55.6333 160.25 56.856 159.914 57.92C159.578 58.9653 158.999 59.7867 158.178 60.384C157.356 60.9627 156.199 61.252 154.706 61.252ZM165.924 61V40.672H162.088V38.32H172.812V40.672H169.088V61H165.924ZM173.766 61L178.582 38.32H181.634L186.478 61H183.482L182.446 55.288H177.826L176.734 61H173.766ZM178.246 53.02H182.026L180.122 42.8L178.246 53.02ZM194.464 61.252C192.858 61.252 191.608 60.916 190.712 60.244C189.834 59.572 189.218 58.6667 188.864 57.528C188.528 56.3893 188.36 55.12 188.36 53.72V45.712C188.36 44.1813 188.528 42.8467 188.864 41.708C189.218 40.5693 189.834 39.692 190.712 39.076C191.608 38.4413 192.858 38.124 194.464 38.124C195.882 38.124 197.002 38.3853 197.824 38.908C198.664 39.4307 199.261 40.1773 199.616 41.148C199.989 42.1187 200.176 43.2853 200.176 44.648V46.44H197.18V44.844C197.18 44.004 197.133 43.2667 197.04 42.632C196.965 41.9787 196.741 41.4747 196.368 41.12C195.994 40.7653 195.369 40.588 194.492 40.588C193.596 40.588 192.942 40.784 192.532 41.176C192.121 41.5493 191.85 42.0907 191.72 42.8C191.608 43.4907 191.552 44.3027 191.552 45.236V54.224C191.552 55.3627 191.645 56.268 191.832 56.94C192.018 57.5933 192.326 58.06 192.756 58.34C193.185 58.62 193.764 58.76 194.492 58.76C195.35 58.76 195.966 58.5733 196.34 58.2C196.713 57.808 196.946 57.276 197.04 56.604C197.133 55.932 197.18 55.148 197.18 54.252V52.572H200.176V54.252C200.176 55.6333 200.008 56.856 199.672 57.92C199.336 58.9653 198.757 59.7867 197.936 60.384C197.114 60.9627 195.957 61.252 194.464 61.252ZM203.19 61V38.32H205.99V54.028L212.626 38.32H214.894V61H212.122V45.04L205.542 61H203.19ZM217.048 61L221.808 50.808C220.8 50.36 219.988 49.6227 219.372 48.596C218.774 47.5507 218.476 46.216 218.476 44.592C218.476 43.3787 218.7 42.3053 219.148 41.372C219.596 40.42 220.342 39.6733 221.388 39.132C222.433 38.5907 223.833 38.32 225.588 38.32H230.18V61H227.016V51.592H225.224C225.186 51.592 225.065 51.592 224.86 51.592C224.654 51.5733 224.533 51.564 224.496 51.564L220.576 61H217.048ZM225.84 49.324H227.016V40.588H225.756C224.337 40.588 223.264 40.896 222.536 41.512C221.826 42.128 221.472 43.1453 221.472 44.564C221.472 46.1693 221.798 47.364 222.452 48.148C223.105 48.932 224.234 49.324 225.84 49.324Z" fill="white"/>
<line x1="84.5" y1="6" x2="84.5" y2="66" stroke="#CCCCCC"/>
<circle cx="32.5" cy="32.5" r="13" stroke="url(#paint0_linear_107_561)"/>
<g clip-path="url(#clip0_107_561)">
<path d="M36.5984 35.2806C36.6071 34.0939 36.138 33.1553 35.2023 32.4926C34.4796 31.9823 33.6026 31.7161 32.7543 31.4603C30.9873 30.9246 30.4747 30.6424 30.4747 29.7974C30.4747 28.8561 31.6979 28.5212 32.7451 28.5212C33.5078 28.5212 34.3852 28.7583 34.9301 29.1097L36.0104 27.4367C35.2982 26.975 34.3236 26.6601 33.3611 26.5623V25H31.3683V26.6719C29.5968 27.0616 28.4809 28.2193 28.4809 29.7974C28.4809 30.9025 28.9402 31.779 29.8433 32.3972C30.5302 32.8691 31.3679 33.1225 32.1772 33.3679C33.9104 33.8918 34.6143 34.211 34.6063 35.2682L34.6062 35.276C34.6062 36.1634 33.4302 36.4788 32.4228 36.4788C31.4711 36.4788 30.4362 36.0618 29.8496 35.4416L28.4019 36.8111C29.1448 37.5968 30.2241 38.1523 31.3682 38.3701V40H33.3611V38.4052C35.3295 38.1234 36.5964 36.9383 36.5984 35.2806Z" fill="url(#paint1_linear_107_561)"/>
</g>
<circle cx="53" cy="11" r="9.5" stroke="url(#paint2_linear_107_561)"/>
<line x1="47" y1="15" x2="59" y2="15" stroke="url(#paint3_linear_107_561)" stroke-width="2"/>
<line x1="47" y1="11" x2="59" y2="11" stroke="url(#paint4_linear_107_561)" stroke-width="2"/>
<line x1="47" y1="7" x2="54" y2="7" stroke="url(#paint5_linear_107_561)" stroke-width="2"/>
<circle cx="9" cy="10" r="8.5" stroke="url(#paint6_linear_107_561)"/>
<circle cx="7" cy="41" r="6.5" stroke="url(#paint7_linear_107_561)"/>
<circle cx="39" cy="56" r="7.5" stroke="url(#paint8_linear_107_561)"/>
<line x1="35" y1="59" x2="43" y2="59" stroke="url(#paint9_linear_107_561)" stroke-width="2"/>
<line x1="35" y1="56" x2="41" y2="56" stroke="url(#paint10_linear_107_561)" stroke-width="2"/>
<line x1="35" y1="53" x2="38" y2="53" stroke="url(#paint11_linear_107_561)" stroke-width="2"/>
<line x1="15.3293" y1="15.6237" x2="23.3293" y2="22.6237" stroke="url(#paint12_linear_107_561)"/>
<line x1="20.0031" y1="36.4891" x2="14.1037" y2="37.7402" stroke="url(#paint13_linear_107_561)"/>
<line x1="36.4851" y1="44.8787" x2="37.4851" y2="48.8787" stroke="url(#paint14_linear_107_561)"/>
<line x1="46.3037" y1="18.3536" x2="41.354" y2="23.3033" stroke="url(#paint15_linear_107_561)"/>
<line x1="7" y1="36" x2="7" y2="46" stroke="url(#paint16_linear_107_561)" stroke-width="2"/>
<line x1="2" y1="41" x2="12" y2="41" stroke="url(#paint17_linear_107_561)" stroke-width="2"/>
<line x1="13" y1="5" x2="13" y2="15" stroke="url(#paint18_linear_107_561)" stroke-width="2"/>
<line x1="9" y1="5" x2="9" y2="15" stroke="url(#paint19_linear_107_561)" stroke-width="2"/>
<line x1="5" y1="9" x2="5" y2="15" stroke="url(#paint20_linear_107_561)" stroke-width="2"/>
<defs>
<linearGradient id="paint0_linear_107_561" x1="19.9492" y1="20.4353" x2="46.4678" y2="43.3881" gradientUnits="userSpaceOnUse">
<stop stop-color="#1729B2"/>
<stop offset="1" stop-color="#4475EB"/>
</linearGradient>
<linearGradient id="paint1_linear_107_561" x1="28.69" y1="25.7974" x2="40.1974" y2="31.24" gradientUnits="userSpaceOnUse">
<stop stop-color="#1729B2"/>
<stop offset="1" stop-color="#4475EB"/>
</linearGradient>
<linearGradient id="paint2_linear_107_561" x1="43.7031" y1="2.06322" x2="63.3465" y2="19.0652" gradientUnits="userSpaceOnUse">
<stop stop-color="#1729B2"/>
<stop offset="1" stop-color="#4475EB"/>
</linearGradient>
<linearGradient id="paint3_linear_107_561" x1="47.4219" y1="16.0532" x2="47.6112" y2="18.0198" gradientUnits="userSpaceOnUse">
<stop stop-color="#1729B2"/>
<stop offset="1" stop-color="#4475EB"/>
</linearGradient>
<linearGradient id="paint4_linear_107_561" x1="47.4219" y1="12.0532" x2="47.6112" y2="14.0198" gradientUnits="userSpaceOnUse">
<stop stop-color="#1729B2"/>
<stop offset="1" stop-color="#4475EB"/>
</linearGradient>
<linearGradient id="paint5_linear_107_561" x1="47.2461" y1="8.05316" x2="47.565" y2="9.98538" gradientUnits="userSpaceOnUse">
<stop stop-color="#1729B2"/>
<stop offset="1" stop-color="#4475EB"/>
</linearGradient>
<linearGradient id="paint6_linear_107_561" x1="0.632812" y1="1.9569" x2="18.3118" y2="17.2587" gradientUnits="userSpaceOnUse">
<stop stop-color="#1729B2"/>
<stop offset="1" stop-color="#4475EB"/>
</linearGradient>
<linearGradient id="paint7_linear_107_561" x1="0.492187" y1="34.7443" x2="14.2425" y2="46.6457" gradientUnits="userSpaceOnUse">
<stop stop-color="#1729B2"/>
<stop offset="1" stop-color="#4475EB"/>
</linearGradient>
<linearGradient id="paint8_linear_107_561" x1="31.5625" y1="48.8506" x2="47.2772" y2="62.4522" gradientUnits="userSpaceOnUse">
<stop stop-color="#1729B2"/>
<stop offset="1" stop-color="#4475EB"/>
</linearGradient>
<linearGradient id="paint9_linear_107_561" x1="35.2812" y1="60.0532" x2="35.562" y2="61.9975" gradientUnits="userSpaceOnUse">
<stop stop-color="#1729B2"/>
<stop offset="1" stop-color="#4475EB"/>
</linearGradient>
<linearGradient id="paint10_linear_107_561" x1="35.2109" y1="57.0532" x2="35.5795" y2="58.967" gradientUnits="userSpaceOnUse">
<stop stop-color="#1729B2"/>
<stop offset="1" stop-color="#4475EB"/>
</linearGradient>
<linearGradient id="paint11_linear_107_561" x1="35.1055" y1="54.0532" x2="35.7711" y2="55.7817" gradientUnits="userSpaceOnUse">
<stop stop-color="#1729B2"/>
<stop offset="1" stop-color="#4475EB"/>
</linearGradient>
<linearGradient id="paint12_linear_107_561" x1="15.2462" y1="16.2861" x2="14.1149" y2="17.9028" gradientUnits="userSpaceOnUse">
<stop stop-color="#1729B2"/>
<stop offset="1" stop-color="#4475EB"/>
</linearGradient>
<linearGradient id="paint13_linear_107_561" x1="19.681" y1="35.992" x2="18.925" y2="34.1951" gradientUnits="userSpaceOnUse">
<stop stop-color="#1729B2"/>
<stop offset="1" stop-color="#4475EB"/>
</linearGradient>
<linearGradient id="paint14_linear_107_561" x1="35.9836" y1="45.1535" x2="34.3233" y2="46.1002" gradientUnits="userSpaceOnUse">
<stop stop-color="#1729B2"/>
<stop offset="1" stop-color="#4475EB"/>
</linearGradient>
<linearGradient id="paint15_linear_107_561" x1="45.7386" y1="18.1364" x2="44.1468" y2="16.9956" gradientUnits="userSpaceOnUse">
<stop stop-color="#1729B2"/>
<stop offset="1" stop-color="#4475EB"/>
</linearGradient>
<linearGradient id="paint16_linear_107_561" x1="5.94684" y1="36.3516" x2="3.98813" y2="36.5779" gradientUnits="userSpaceOnUse">
<stop stop-color="#1729B2"/>
<stop offset="1" stop-color="#4475EB"/>
</linearGradient>
<linearGradient id="paint17_linear_107_561" x1="2.35156" y1="42.0532" x2="2.57786" y2="44.0119" gradientUnits="userSpaceOnUse">
<stop stop-color="#1729B2"/>
<stop offset="1" stop-color="#4475EB"/>
</linearGradient>
<linearGradient id="paint18_linear_107_561" x1="11.9468" y1="5.35156" x2="9.98813" y2="5.57786" gradientUnits="userSpaceOnUse">
<stop stop-color="#1729B2"/>
<stop offset="1" stop-color="#4475EB"/>
</linearGradient>
<linearGradient id="paint19_linear_107_561" x1="7.94684" y1="5.35156" x2="5.98813" y2="5.57786" gradientUnits="userSpaceOnUse">
<stop stop-color="#1729B2"/>
<stop offset="1" stop-color="#4475EB"/>
</linearGradient>
<linearGradient id="paint20_linear_107_561" x1="3.94684" y1="9.21094" x2="2.03295" y2="9.57947" gradientUnits="userSpaceOnUse">
<stop stop-color="#1729B2"/>
<stop offset="1" stop-color="#4475EB"/>
</linearGradient>
<clipPath id="clip0_107_561">
<rect width="15" height="15" fill="white" transform="translate(25 25)"/>
</clipPath>
</defs>
</svg>
