<svg xmlns="http://www.w3.org/2000/svg" width="64" height="64" fill="none"><path fill="#252525" d="M45.626 63.626h-27.25a2.388 2.388 0 0 1-2.3-2.463V43.028a2.388 2.388 0 0 1 2.3-2.465H45.63a2.388 2.388 0 0 1 2.3 2.463v18.135a2.388 2.388 0 0 1-2.303 2.465Zm-27.25-22.09a1.417 1.417 0 0 0-1.326 1.49v18.135a1.417 1.417 0 0 0 1.327 1.492h27.252a1.417 1.417 0 0 0 1.327-1.49V43.028a1.417 1.417 0 0 0-1.327-1.49l-27.252-.002Z"/><path fill="#252525" d="M44.875 61.061h-3.349a.487.487 0 0 1 0-.973h2.862v-2.51a.487.487 0 0 1 .974 0v2.996a.486.486 0 0 1-.487.487ZM43.248 41.536a.487.487 0 0 1-.486-.486v-8.04a10.762 10.762 0 0 0-21.524 0v8.04a.487.487 0 0 1-.973 0v-8.04a11.735 11.735 0 0 1 23.47 0v8.04a.487.487 0 0 1-.486.486Z"/><path fill="#252525" d="M39.713 41.536a.486.486 0 0 1-.486-.486v-8.001a7.226 7.226 0 1 0-14.454 0v8a.487.487 0 0 1-.973 0v-8a8.2 8.2 0 0 1 16.4 0v8a.486.486 0 0 1-.487.487ZM33.504 54.75h-3.008a.487.487 0 0 1-.484-.537l.327-3.097a2.618 2.618 0 1 1 3.323 0l.327 3.097a.485.485 0 0 1-.487.538h.002Zm-2.468-.972h1.928l-.3-2.838a.487.487 0 0 1 .222-.461 1.645 1.645 0 1 0-1.772 0 .487.487 0 0 1 .222.46l-.3 2.839Z"/><path fill="#252525" d="M55.554 35.28H43.249a.486.486 0 1 1 0-.974h12.305c3.848 0 7.099-3.37 7.099-7.361v-.049a6.344 6.344 0 0 0-4.158-6.16 6.583 6.583 0 0 0-.72-.286.487.487 0 0 1-.285-.672c.398-.837.6-1.753.594-2.68a6.342 6.342 0 0 0-6.34-6.33 6.199 6.199 0 0 0-2.5.52.487.487 0 0 1-.681-.419 9.741 9.741 0 0 0-18.175-4.267.487.487 0 0 1-.842.003 10.67 10.67 0 0 0-19.864 5.422 10.47 10.47 0 0 0 .484 3.163.486.486 0 0 1-.42.632 9.263 9.263 0 0 0 .86 18.484h10.145a.487.487 0 0 1 0 .973H10.606a10.237 10.237 0 0 1-1.53-20.357 11.643 11.643 0 0 1 20.889-9.474 10.714 10.714 0 0 1 19.51 4.707 7.316 7.316 0 0 1 9.102 9.553c.106.044.208.088.307.135a7.342 7.342 0 0 1 4.742 7.055c0 4.567-3.698 8.381-8.072 8.381Z"/><path fill="#252525" d="M13.249 31.01h-2.64a5.972 5.972 0 0 1-5.963-5.968.486.486 0 1 1 .973 0 4.998 4.998 0 0 0 4.99 4.994h2.64a.486.486 0 1 1 0 .973Z"/></svg>