<svg xmlns="http://www.w3.org/2000/svg" viewBox="0 0 64 64" width="48" height="48" fill="none"><path fill="#fff" d="M60.906 51.218H3.094a2.792 2.792 0 0 1-2.79-2.79V5.83a2.793 2.793 0 0 1 2.79-2.79h57.812a2.793 2.793 0 0 1 2.79 2.79v42.597a2.792 2.792 0 0 1-2.79 2.79ZM3.094 4.016A1.816 1.816 0 0 0 1.28 5.832v42.597a1.817 1.817 0 0 0 1.814 1.815h57.812a1.817 1.817 0 0 0 1.814-1.815V5.83a1.817 1.817 0 0 0-1.814-1.815H3.094Z"/><path fill="#fff" d="M60.282 43.085H3.718a.488.488 0 0 1-.488-.488V6.455a.488.488 0 0 1 .488-.488h56.564a.488.488 0 0 1 .488.488v36.142a.488.488 0 0 1-.488.488ZM4.206 42.11h55.588V6.942H4.206V42.11Z"/><path fill="#fff" d="M63.208 43.085H.792a.488.488 0 0 1 0-.975h62.416a.487.487 0 0 1 0 .975ZM39.473 58.02H24.527a.488.488 0 0 1-.488-.488V50.73a.488.488 0 0 1 .488-.487h14.946a.488.488 0 0 1 .488.487v6.802a.487.487 0 0 1-.488.487Zm-14.459-.976h13.972v-5.826H25.014v5.826Z"/><path fill="#fff" d="M44.008 60.959H19.992a.488.488 0 0 1-.487-.488 3.43 3.43 0 0 1 3.425-3.427h18.14a3.43 3.43 0 0 1 3.426 3.427.487.487 0 0 1-.488.488Zm-23.48-.976h22.943a2.455 2.455 0 0 0-2.401-1.964H22.93a2.455 2.455 0 0 0-2.401 1.964ZM32 48.452a1.764 1.764 0 1 1 0-3.529 1.764 1.764 0 0 1 0 3.529Zm0-2.553a.79.79 0 1 0 0 1.581.79.79 0 0 0 0-1.583v.002ZM40.465 31.727a.484.484 0 0 1-.344-.143l-6.431-6.43-2.027 2.793a.487.487 0 0 1-.868-.167l-2.669-10.608a.488.488 0 0 1 .592-.592l10.609 2.669a.488.488 0 0 1 .167.867L36.7 22.143l6.43 6.431a.488.488 0 0 1 0 .69l-2.32 2.32a.483.483 0 0 1-.345.143Zm-6.835-7.81c.13 0 .253.051.345.143l6.49 6.49 1.632-1.63-6.489-6.491a.488.488 0 0 1 .059-.74l2.412-1.75-8.81-2.214 2.215 8.804 1.75-2.41a.487.487 0 0 1 .356-.2l.04-.002ZM21.214 19.305a.487.487 0 0 1-.488-.488 9.734 9.734 0 0 1 9.723-9.723.488.488 0 0 1 0 .975 8.758 8.758 0 0 0-8.748 8.748.488.488 0 0 1-.487.488Z"/><path fill="#fff" d="M23.357 19.305a.488.488 0 0 1-.487-.488 7.588 7.588 0 0 1 7.58-7.58.488.488 0 1 1 0 .976 6.612 6.612 0 0 0-6.605 6.604.487.487 0 0 1-.488.488Z"/><path fill="#fff" d="M25.5 19.305a.488.488 0 0 1-.487-.488 5.443 5.443 0 0 1 5.436-5.437.487.487 0 1 1 0 .975 4.466 4.466 0 0 0-4.46 4.462.488.488 0 0 1-.489.488ZM55.812 34.228H8.188a.487.487 0 1 1 0-.975h47.624a.488.488 0 0 1 0 .975ZM55.812 38.542H8.188a.488.488 0 0 1 0-.975h47.624a.487.487 0 0 1 0 .975Z"/></svg>
