<svg xmlns="http://www.w3.org/2000/svg" width="64" height="64" fill="none"><path fill="#fff" d="M1.382 54.28h11.37a1.376 1.376 0 0 0 1.375-1.375v-.849l22.828 5.382c.634.152 1.283.23 1.935.233 1.44 0 2.848-.421 4.051-1.212l19.266-12.38a3.813 3.813 0 0 0 1.78-3.237l.006-1.017a2.625 2.625 0 0 0-3.199-2.577l-4.376.98-1.537-2.37c.419-.82.772-1.672 1.057-2.548l4.404-.938a.75.75 0 0 0 .594-.734v-7.42a.75.75 0 0 0-.594-.734l-4.404-.937a17.415 17.415 0 0 0-1.057-2.55l2.452-3.778a.75.75 0 0 0-.099-.939l-5.247-5.247a.75.75 0 0 0-.939-.099l-3.78 2.452c-.82-.42-1.671-.773-2.547-1.057l-.939-4.404a.75.75 0 0 0-.733-.594h-7.42a.75.75 0 0 0-.734.594l-.938 4.404c-.877.284-1.729.638-2.55 1.057L27.63 9.935a.75.75 0 0 0-.938.098l-5.247 5.248a.75.75 0 0 0-.1.938l2.453 3.78c-.42.82-.773 1.672-1.057 2.548l-4.405.938a.75.75 0 0 0-.594.733v7.42a.75.75 0 0 0 .594.733l4.405.938c.035.11.072.22.11.328h-8.723v-1.493a1.376 1.376 0 0 0-1.375-1.375H1.382a1.377 1.377 0 0 0-1.375 1.375v20.761a1.377 1.377 0 0 0 1.375 1.375Zm17.86-23.249v-6.206l4.24-.903a.75.75 0 0 0 .563-.521 15.86 15.86 0 0 1 1.279-3.084.75.75 0 0 0-.03-.766l-2.36-3.64 4.388-4.388 3.639 2.36a.75.75 0 0 0 .766.03 15.89 15.89 0 0 1 3.084-1.28.75.75 0 0 0 .521-.562l.904-4.24h6.206l.903 4.24a.75.75 0 0 0 .521.563 15.89 15.89 0 0 1 3.083 1.28.75.75 0 0 0 .767-.03l3.64-2.361 4.388 4.388-2.36 3.639a.75.75 0 0 0-.03.767c.533.98.962 2.014 1.279 3.084a.75.75 0 0 0 .562.52l4.24.904v6.206l-4.24.904a.75.75 0 0 0-.563.52 15.875 15.875 0 0 1-1.279 3.084.75.75 0 0 0 .03.766l1.474 2.273-6.072 1.36a2.734 2.734 0 0 0-1.1-.863c-.32-.133-.663-.2-1.01-.198H33.283a2.266 2.266 0 0 1-1.424-.474l-4.995-3.743a4.93 4.93 0 0 0-2.4-.983 15.876 15.876 0 0 1-.418-1.223.75.75 0 0 0-.562-.521l-4.242-.902Zm4.548 4.107a3.458 3.458 0 0 1 2.174.724l4.995 3.742a3.744 3.744 0 0 0 2.323.774h13.394A1.125 1.125 0 0 1 47.8 41.51l-.005.84a2.375 2.375 0 0 1-2.115 2.346l-14.037 1.546a2.23 2.23 0 0 1-1.1-.139l-6.24-2.357a.75.75 0 1 0-.53 1.403l6.24 2.358c.57.22 1.187.299 1.794.226l14.037-1.545a3.875 3.875 0 0 0 3.45-3.829l.005-.84c0-.053 0-.106-.003-.158l11.825-2.65a1.125 1.125 0 0 1 1.37 1.105l-.005 1.017a2.308 2.308 0 0 1-1.091 1.984L42.13 55.197c-1.45.931-3.075 1.194-4.83.78l-23.173-5.462V35.138h9.663Zm-22.283-2.87h11.12V52.78H1.507V32.27Zm7.301 15.18a2.193 2.193 0 1 0 0 4.387 2.193 2.193 0 0 0 0-4.386Zm0 2.888a.693.693 0 1 1 0-1.386.693.693 0 0 1 0 1.386Zm30.53-13.17a9.24 9.24 0 1 0-9.238-9.238 9.25 9.25 0 0 0 9.239 9.239Zm0-16.977a7.739 7.739 0 1 1-7.738 7.739 7.747 7.747 0 0 1 7.739-7.739Z"/></svg>