<?xml version="1.0" standalone="no"?>
<!DOCTYPE svg PUBLIC "-//W3C//DTD SVG 20010904//EN"
 "http://www.w3.org/TR/2001/REC-SVG-20010904/DTD/svg10.dtd">
<svg version="1.0" xmlns="http://www.w3.org/2000/svg"
 width="512.000000pt" height="512.000000pt" viewBox="0 0 512.000000 512.000000"
 preserveAspectRatio="xMidYMid meet">
<metadata>
Created by potrace 1.14, written by Peter Selinger 2001-2017
</metadata>
<g transform="translate(0.000000,512.000000) scale(0.100000,-0.100000)"
fill="#000000" stroke="none">
<path d="M575 5066 c-156 -37 -308 -124 -388 -224 -10 -12 -24 -28 -31 -35
-38 -38 -118 -196 -131 -257 -2 -8 -8 -35 -14 -60 -14 -62 -11 -225 6 -285 8
-27 16 -58 18 -68 2 -10 15 -43 29 -73 154 -336 525 -498 886 -387 82 25 242
124 272 167 4 7 16 2 30 -10 13 -12 41 -36 62 -55 21 -19 44 -38 50 -44 6 -5
43 -37 81 -70 39 -33 75 -65 81 -70 6 -6 39 -35 74 -65 63 -55 134 -118 199
-176 l34 -31 -22 -24 c-129 -137 -238 -355 -276 -549 -21 -110 -10 -364 19
-457 6 -17 -3 -21 -76 -37 -46 -10 -94 -20 -108 -23 -14 -2 -65 -13 -113 -24
-48 -10 -98 -21 -110 -23 -18 -3 -21 -9 -19 -32 5 -50 8 -53 49 -44 21 5 49
11 63 13 14 3 68 14 120 25 100 22 132 28 191 38 35 6 37 5 49 -32 23 -70 109
-215 166 -279 14 -16 36 -41 48 -55 33 -39 148 -134 208 -172 111 -70 239
-121 393 -153 98 -21 386 -8 457 20 13 5 19 -1 27 -32 49 -196 49 -192 18
-197 -8 -1 -49 -19 -92 -40 -140 -69 -275 -230 -316 -376 -7 -25 -14 -52 -17
-60 -2 -8 -5 -58 -7 -110 -4 -122 14 -203 67 -310 74 -148 228 -279 378 -321
25 -7 52 -14 60 -17 43 -12 209 -10 270 4 218 50 400 217 469 429 30 91 37
243 15 335 -51 221 -225 407 -444 475 -34 11 -97 18 -165 20 l-110 3 -27 98
c-30 112 -33 134 -17 134 18 0 168 79 230 121 125 85 249 219 326 354 43 75
99 211 108 265 3 18 8 37 11 42 17 27 25 300 12 394 -16 108 -87 312 -123 354
-8 8 -13 17 -12 20 2 7 -67 110 -94 140 -12 14 -31 35 -42 47 l-19 21 176 177
175 176 59 -41 c62 -42 175 -97 214 -104 13 -3 23 -5 23 -6 0 -2 4 -2 90 -19
53 -10 226 -8 285 4 52 11 204 67 208 76 2 5 8 9 14 9 33 0 180 124 250 210
190 238 220 581 75 866 -42 83 -110 164 -208 249 -159 137 -439 206 -644 160
-38 -8 -81 -18 -94 -21 -40 -8 -147 -61 -207 -100 -56 -37 -204 -178 -204
-194 0 -5 -6 -15 -14 -22 -30 -31 -97 -190 -116 -276 -27 -122 -22 -266 11
-397 24 -91 115 -251 181 -317 20 -20 20 -20 -153 -194 -96 -96 -177 -174
-180 -174 -3 0 -19 11 -35 25 -123 108 -356 211 -524 233 -30 4 -113 6 -185 6
-172 -2 -280 -26 -445 -101 -49 -22 -220 -135 -220 -145 0 -13 -16 -9 -37 10
-57 50 -147 128 -157 137 -6 6 -101 89 -211 184 -110 96 -204 178 -209 182 -5
4 9 38 32 76 47 79 74 139 90 204 11 45 26 144 24 164 -8 114 -17 168 -34 223
-72 236 -243 407 -483 482 -90 28 -264 36 -350 16z m335 -96 c109 -37 180 -81
261 -161 81 -81 134 -169 166 -279 26 -88 23 -268 -6 -355 -31 -96 -80 -180
-143 -246 -92 -97 -158 -139 -284 -180 -99 -33 -270 -33 -369 0 -105 34 -191
86 -264 161 -121 122 -180 256 -186 420 -7 181 51 342 168 463 102 105 184
154 317 188 91 24 252 19 340 -11z m3530 0 c232 -70 402 -235 482 -467 36
-102 46 -261 24 -356 -8 -32 -14 -61 -15 -65 -11 -45 -20 -68 -55 -137 -59
-116 -189 -244 -306 -303 -47 -23 -92 -42 -101 -42 -9 0 -19 -3 -23 -7 -3 -4
-12 -8 -19 -9 -7 -1 -30 -6 -52 -11 -74 -18 -252 -9 -335 16 -259 79 -449 286
-505 550 -18 84 -13 235 10 326 64 252 287 463 549 519 93 20 256 14 346 -14z
m-1590 -1443 c99 -29 185 -62 220 -85 14 -9 27 -17 30 -17 17 -1 137 -93 192
-147 113 -110 183 -214 236 -348 78 -200 92 -439 35 -640 -61 -215 -195 -404
-394 -553 -73 -55 -233 -124 -354 -153 -78 -19 -303 -27 -363 -13 -20 4 -48
10 -62 12 -83 16 -217 66 -264 100 -17 12 -32 20 -34 19 -3 -4 -15 4 -101 67
-43 32 -132 118 -176 172 -82 99 -178 305 -191 408 -3 19 -7 38 -11 44 -3 6
-7 68 -8 138 -4 192 26 324 112 494 25 50 48 92 52 95 3 3 24 28 45 55 152
194 363 320 616 370 106 20 317 11 420 -18z m370 -2298 c240 -38 440 -259 456
-505 19 -287 -176 -543 -452 -593 -71 -13 -202 -7 -265 13 -176 54 -320 198
-375 375 -19 60 -26 212 -13 276 17 82 82 204 143 268 130 138 311 197 506
166z"/>
<path d="M683 4762 c-42 -3 -43 -4 -43 -38 -1 -19 -1 -171 -1 -339 0 -168 0
-332 1 -365 l0 -60 80 0 80 0 1 43 c3 213 -1 738 -5 746 -7 11 -58 17 -113 13z"/>
<path d="M960 4745 c-3 -126 0 -778 3 -782 6 -6 148 -5 154 1 3 2 5 180 6 395
2 317 -1 392 -11 396 -8 3 -45 5 -83 5 -54 0 -69 -3 -69 -15z"/>
<path d="M363 4442 l-43 -3 0 -57 c-2 -230 0 -416 5 -420 5 -6 147 -3 153 3 6
6 4 453 -2 463 -7 12 -57 18 -113 14z"/>
<path d="M3868 4682 l-106 -3 -4 -47 c-1 -26 -2 -62 0 -79 l3 -33 280 0 c259
0 279 1 280 18 1 33 -3 137 -6 140 -4 4 -324 7 -447 4z"/>
<path d="M3758 4288 c-2 -44 1 -82 5 -85 9 -5 948 -5 954 0 5 6 6 148 0 153
-7 7 -887 8 -893 1 -3 -3 -18 -1 -34 3 l-29 8 -3 -80z"/>
<path d="M3843 4042 l-83 -3 -1 -47 c-1 -53 2 -106 6 -110 1 -1 216 -3 476 -3
l474 -1 2 59 c1 32 4 66 7 76 2 10 -2 21 -10 24 -15 5 -735 10 -871 5z"/>
<path d="M2508 3094 l-3 -66 -48 -18 c-91 -35 -163 -110 -172 -181 -13 -108 3
-164 67 -231 41 -42 91 -65 241 -115 124 -40 165 -69 173 -124 7 -44 -23 -85
-77 -103 -78 -27 -224 -1 -281 51 -20 18 -18 19 -100 -56 l-38 -35 33 -29 c39
-35 94 -64 159 -83 l48 -15 0 -64 0 -65 80 0 80 0 0 64 0 64 37 7 c92 17 187
94 210 170 17 54 9 147 -17 197 -45 87 -114 130 -297 188 -122 38 -163 69
-163 123 0 60 58 97 164 102 57 3 148 -16 173 -37 12 -10 57 43 89 104 13 26
13 26 -32 47 -25 12 -71 28 -102 35 l-57 13 -3 61 -3 62 -79 0 -79 0 -3 -66z"/>
<path d="M2799 973 c-1 -16 -1 -31 -1 -34 1 -3 2 -28 3 -55 l2 -49 115 3 c64
1 117 3 118 5 5 5 6 35 5 95 l-1 62 -120 0 -120 0 -1 -27z"/>
<path d="M2810 760 c-4 -3 -8 -40 -9 -82 l-1 -78 103 0 c277 -1 370 -1 373 3
5 5 7 147 2 152 -6 6 -459 11 -468 5z"/>
<path d="M2858 522 l-58 -3 -1 -52 c-1 -55 1 -100 6 -105 4 -4 626 -4 631 0 2
2 5 37 6 77 3 65 1 72 -17 77 -23 5 -482 10 -567 6z"/>
<path d="M445 2428 c-217 -47 -375 -205 -434 -432 -17 -64 -7 -222 19 -295 56
-166 190 -298 356 -353 97 -32 261 -32 353 1 164 57 292 185 351 351 34 94 34
266 0 360 -64 179 -209 313 -390 361 -70 18 -190 22 -255 7z m272 -96 c79 -30
133 -64 185 -118 192 -194 176 -525 -33 -699 -56 -47 -139 -91 -189 -100 -60
-11 -166 -13 -216 -4 -69 13 -181 71 -231 119 -166 163 -198 416 -78 605 66
103 170 178 286 209 75 19 210 14 276 -12z"/>
<path d="M479 2248 c0 -18 0 -90 0 -160 l0 -126 -156 -1 c-86 -1 -159 -3 -161
-6 -5 -5 -4 -147 2 -152 2 -3 74 -4 159 -4 l154 2 1 -152 c1 -85 6 -157 11
-162 9 -9 140 -11 149 -2 2 2 3 74 3 160 -1 155 0 156 22 154 12 -1 84 -1 160
-1 l137 2 0 80 0 80 -127 1 c-71 1 -142 0 -160 -1 l-32 -1 0 103 c0 57 0 129
0 161 l-1 57 -80 0 -80 0 -1 -32z"/>
</g>
</svg>
