<svg viewBox="0 0 280 43" fill="none" xmlns="http://www.w3.org/2000/svg">
<rect y="20" width="280" height="6" fill="#1B2EB6"/>
<circle cx="140" cy="23" r="19" fill="white" stroke="#1B2EB6" stroke-width="2"/>
<path d="M132.792 32V29.48L139.272 23.36C139.784 22.896 140.16 22.48 140.4 22.112C140.64 21.744 140.8 21.408 140.88 21.104C140.976 20.8 141.024 20.52 141.024 20.264C141.024 19.592 140.792 19.08 140.328 18.728C139.88 18.36 139.216 18.176 138.336 18.176C137.632 18.176 136.976 18.312 136.368 18.584C135.776 18.856 135.272 19.28 134.856 19.856L132.024 18.032C132.664 17.072 133.56 16.312 134.712 15.752C135.864 15.192 137.192 14.912 138.696 14.912C139.944 14.912 141.032 15.12 141.96 15.536C142.904 15.936 143.632 16.504 144.144 17.24C144.672 17.976 144.936 18.856 144.936 19.88C144.936 20.424 144.864 20.968 144.72 21.512C144.592 22.04 144.32 22.6 143.904 23.192C143.504 23.784 142.912 24.448 142.128 25.184L136.752 30.248L136.008 28.832H145.488V32H132.792Z" fill="black"/>
</svg>
