<svg viewBox="0 0 280 43" xmlns="http://www.w3.org/2000/svg" xmlns:svg="http://www.w3.org/2000/svg">
  <path clip-rule="evenodd" d="m280,16l-6,0l0,4l-274,0l0,6l274,0l0,4l6,0l0,-4l0,-6l0,-4z" fill="#1B2EB6" fill-rule="evenodd"/>
  <circle cx="140" cy="21" fill="white" id="svg_2" r="19" stroke="#1B2EB6" stroke-width="2"/>
  <path d="m138.38,30.29c-1.16,0 -2.32,-0.15 -3.48,-0.46c-1.15,-0.32 -2.12,-0.77 -2.92,-1.34l1.51,-2.98c0.64,0.47 1.38,0.83 2.23,1.11c0.85,0.27 1.7,0.4 2.57,0.4c0.97,0 1.74,-0.19 2.3,-0.57c0.56,-0.39 0.84,-0.91 0.84,-1.59c0,-0.64 -0.25,-1.14 -0.74,-1.51c-0.5,-0.37 -1.3,-0.55 -2.4,-0.55l-1.78,0l0,-2.57l4.68,-5.3l0.43,1.39l-8.8,0l0,-3.12l11.76,0l0,2.52l-4.66,5.3l-1.97,-1.12l1.13,0c2.06,0 3.62,0.46 4.68,1.39c1.06,0.93 1.58,2.12 1.58,3.57c0,0.95 -0.24,1.84 -0.74,2.67c-0.5,0.81 -1.26,1.48 -2.28,1.99c-1.02,0.51 -2.34,0.77 -3.94,0.77z" fill="black"/>
</svg>